<svg width="21" height="21" viewBox="0 0 21 21" fill="none" xmlns="http://www.w3.org/2000/svg">
<path d="M18.2451 3.41058C16.8162 1.84954 14.9491 0.756693 12.8885 0.275291C10.8278 -0.206112 8.66981 -0.0535975 6.69734 0.712839C4.72486 1.47928 3.02998 2.82387 1.83486 4.57035C0.63975 6.31683 0.00018114 8.3837 0 10.5H1.96875C1.96897 8.77313 2.49315 7.08697 3.47201 5.66439C4.45088 4.2418 5.83834 3.14976 7.45103 2.53259C9.06371 1.91543 10.8257 1.8022 12.5041 2.20786C14.1825 2.61352 15.6983 3.51899 16.8512 4.80458L15.0938 6.56218L21 7.87478L19.6875 1.96804L18.2451 3.41058Z" fill="white"/>
<path d="M19.0312 10.5C19.031 12.2269 18.5069 13.913 17.528 15.3356C16.5491 16.7582 15.1617 17.8502 13.549 18.4674C11.9363 19.0846 10.1743 19.1978 8.4959 18.7921C6.8175 18.3865 5.30169 17.481 4.14881 16.1954L5.90625 14.4378L0 13.1252L1.3125 19.032L2.75494 17.5894C4.18377 19.1505 6.05089 20.2433 8.11153 20.7247C10.1722 21.2061 12.3302 21.0536 14.3027 20.2872C16.2751 19.5207 17.97 18.1761 19.1651 16.4297C20.3603 14.6832 20.9998 12.6163 21 10.5H19.0312Z" fill="white"/>
<path d="M12 10.5C12 11.3284 11.3284 12 10.5 12C9.67157 12 9 11.3284 9 10.5C9 9.67157 9.67157 9 10.5 9C11.3284 9 12 9.67157 12 10.5Z" fill="#E80274"/>
<path fill-rule="evenodd" clip-rule="evenodd" d="M14 10.5C14 12.433 12.433 14 10.5 14C8.567 14 7 12.433 7 10.5C7 8.567 8.567 7 10.5 7C12.433 7 14 8.567 14 10.5ZM10.5 12C11.3284 12 12 11.3284 12 10.5C12 9.67157 11.3284 9 10.5 9C9.67157 9 9 9.67157 9 10.5C9 11.3284 9.67157 12 10.5 12Z" fill="#E50374"/>
</svg>
