<svg width="26" height="19" viewBox="0 0 26 19" fill="none" xmlns="http://www.w3.org/2000/svg">
<path d="M23.8268 16.8113C23.8268 18.0116 23.0371 18.9848 22.0638 18.9848H2.22401C1.25066 18.9831 0.460938 18.0116 0.460938 16.8113V2.17347C0.460938 0.973144 1.25066 0 2.22401 0H22.0638C23.0371 0 23.8268 0.973144 23.8268 2.17347V16.8113Z" fill="white"/>
<path d="M25.9997 11.1992C25.9997 12.2065 25.2304 13.0238 24.2815 13.0238H15.9775C15.0286 13.0238 14.2593 12.2065 14.2593 11.1992V7.78734C14.2593 6.78006 15.0286 5.96271 15.9775 5.96271H24.2815C25.2304 5.96271 25.9997 6.77837 25.9997 7.78734V11.1992Z" fill="#E80274"/>
</svg>
