<svg width="173" height="80" viewBox="0 0 173 80" fill="none" xmlns="http://www.w3.org/2000/svg">
<path d="M86.1353 8.8492C91.0749 8.8492 95.4656 11.0075 98.4293 14.353L105.894 9.38879C101.283 3.66918 94.1484 0 86.1353 0C78.1222 0 71.0971 3.56126 66.4868 9.28087L73.951 14.2451C76.9148 10.8996 81.3055 8.8492 86.1353 8.8492Z" fill="url(#paint0_linear_1_1312)"/>
<path d="M86.1347 40.684C81.1951 40.684 76.8044 38.5256 73.8406 35.1802L66.5959 40.0365C67.3643 40.8998 68.2425 41.7631 69.1206 42.7344L86.3542 59.6774L104.246 41.871C104.795 41.3315 105.344 40.684 105.893 40.0365L98.5385 35.0723C95.5747 38.5256 91.0742 40.684 86.1347 40.684Z" fill="url(#paint1_linear_1_1312)"/>
<path d="M69.8904 24.7125C69.8904 22.0145 70.549 19.4245 71.8662 17.1583L64.402 12.1941C62.2066 15.8633 60.8894 20.18 60.8894 24.7125C60.8894 29.6767 62.0969 33.5617 64.402 37.1229L71.7564 32.1588C70.6588 30.0004 69.8904 27.4104 69.8904 24.7125Z" fill="url(#paint2_linear_1_1312)"/>
<path d="M107.979 12.3013L100.515 17.2655C101.722 19.5317 102.381 22.0138 102.381 24.7117C102.381 27.3017 101.722 29.8918 100.625 32.0501L108.089 37.0143C110.394 33.3451 111.492 29.3522 111.492 24.7117C111.382 20.2871 110.174 15.9705 107.979 12.3013Z" fill="url(#paint3_linear_1_1312)"/>
<path d="M86.1363 17.5886C90.0879 17.5886 93.381 20.8261 93.381 24.7112C93.381 28.7041 90.0879 31.8337 86.1363 31.8337C82.0749 31.8337 78.8916 28.5962 78.8916 24.7112C78.8916 20.8261 82.1846 17.5886 86.1363 17.5886Z" fill="url(#paint4_linear_1_1312)"/>
<path d="M118.518 5.18237C122.03 10.902 124.116 17.5928 124.116 24.7154C124.116 31.8379 122.03 38.5288 118.518 44.1404L110.944 39.0683C113.468 34.8596 114.895 30.0033 114.895 24.7154C114.895 19.4274 113.468 14.5712 110.834 10.2545L118.518 5.18237ZM53.7544 44.3563C50.2418 38.6367 48.1562 31.9458 48.1562 24.7154C48.1562 17.5928 50.2418 10.7941 53.8642 5.18237L61.4382 10.2545C58.8038 14.4632 57.267 19.4274 57.267 24.7154C57.267 30.0033 58.8038 34.9675 61.3284 39.1763L53.7544 44.3563Z" fill="url(#paint5_linear_1_1312)"/>
<path d="M15.4669 71.6363H9.16558V79.9999H6.30134V71.6363H0V68.6575H15.4669V71.6363Z" fill="#F40074"/>
<path d="M34.6004 74.2714C34.6004 75.8754 34.0276 77.2502 32.9964 78.2813C31.9653 79.3125 30.5905 79.8853 28.9865 79.8853H22.3415C20.7375 79.8853 19.3626 79.3125 18.3315 78.2813C17.3004 77.2502 16.7275 75.8754 16.7275 74.2714C16.7275 72.6674 17.3004 71.2926 18.3315 70.2614C19.3626 69.2303 20.7375 68.6575 22.3415 68.6575H28.9865C30.5905 68.6575 31.9653 69.2303 32.9964 70.2614C34.1421 71.2926 34.6004 72.6674 34.6004 74.2714ZM31.7362 74.2714C31.7362 73.4694 31.507 72.782 31.0488 72.3237C30.5905 71.8654 29.9031 71.6363 29.1011 71.5217H22.456C21.654 71.5217 20.9666 71.7509 20.5083 72.3237C20.0501 72.782 19.8209 73.4694 19.8209 74.2714C19.8209 75.0734 20.0501 75.7608 20.5083 76.2191C20.9666 76.6774 21.654 76.9065 22.456 76.9065H29.1011C29.9031 76.9065 30.5905 76.6774 31.0488 76.2191C31.507 75.7608 31.7362 75.0734 31.7362 74.2714Z" fill="#F40074"/>
<path d="M56.827 79.8853H46.974C45.2554 79.8853 43.8806 79.3125 42.8494 78.1668C41.9329 77.1356 41.4746 75.8754 41.4746 74.386C41.4746 72.8966 41.9329 71.5217 42.8494 70.376C43.9951 69.2303 45.2554 68.6575 46.974 68.6575H56.827V71.6363H46.974C45.8283 71.6363 45.0263 72.0946 44.568 72.8966H53.9627V75.8754H44.6826C45.1408 76.6774 45.9428 77.1356 47.0885 77.1356H56.9415V79.8853H56.827Z" fill="#F40074"/>
<path d="M74.2412 79.8853H71.2623V77.1356H61.6385V79.8853H58.6597V73.584C58.6597 71.98 59.4617 70.7197 61.0656 69.8032C62.4405 69.1157 63.9299 68.6575 65.6484 68.6575H67.0233C68.8564 68.6575 70.3458 69.0012 71.6061 69.8032C73.21 70.7197 74.012 71.98 74.012 73.584V79.8853H74.2412ZM71.3769 74.1568V73.584C71.3769 72.8966 70.8041 72.3237 69.7729 71.98C68.971 71.7509 68.169 71.5217 67.2524 71.5217H65.8776C64.2736 71.5217 63.1279 71.8654 62.4405 72.4383C62.0968 72.782 61.8676 73.1257 61.7531 73.584V74.1568H71.3769Z" fill="#F40074"/>
<path d="M91.7704 72.8966C91.7704 74.5005 90.9684 75.7608 89.3644 76.4482L91.083 79.8853H87.7604L86.3856 77.0211C86.271 77.0211 83.9796 77.0211 79.2823 77.0211V79.7707H76.3035V68.6575H86.1565C87.6459 68.6575 88.9061 69.0012 89.9373 69.6886C91.083 70.4906 91.7704 71.5217 91.7704 72.8966ZM88.7916 72.8966C88.7916 72.4383 88.4479 72.0946 87.7604 71.8654C87.1876 71.6363 86.7293 71.6363 86.1565 71.6363H79.2823V74.2714H86.1565C86.7293 74.2714 87.3022 74.1568 87.7604 74.0422C88.4479 73.6985 88.7916 73.3548 88.7916 72.8966Z" fill="#F40074"/>
<path d="M108.841 79.9999H106.779L96.3533 72.8966V79.9999H93.3745V68.6575H95.4368L105.863 75.6462V68.6575H108.841V79.9999Z" fill="#F40074"/>
<path d="M131.87 79.9999H129.808L119.382 72.8966V79.9999H116.403V68.6575H118.465L128.891 75.6462V68.6575H131.87V79.9999Z" fill="#F40074"/>
<path d="M151.462 74.2714C151.462 75.8754 150.889 77.2502 149.858 78.2813C148.827 79.3125 147.452 79.8853 145.848 79.8853H139.203C137.599 79.8853 136.224 79.3125 135.193 78.2813C134.162 77.2502 133.589 75.8754 133.589 74.2714C133.589 72.6674 134.162 71.2926 135.193 70.2614C136.224 69.2303 137.599 68.6575 139.203 68.6575H145.848C147.452 68.6575 148.827 69.2303 149.858 70.2614C151.004 71.2926 151.462 72.6674 151.462 74.2714ZM148.598 74.2714C148.598 73.4694 148.369 72.782 147.91 72.3237C147.452 71.8654 146.765 71.6363 145.963 71.5217H139.318C138.516 71.5217 137.828 71.7509 137.37 72.3237C136.912 72.782 136.683 73.4694 136.683 74.2714C136.683 75.0734 136.912 75.7608 137.37 76.2191C137.828 76.6774 138.516 76.9065 139.318 76.9065H145.963C146.765 76.9065 147.452 76.6774 147.91 76.2191C148.254 75.7608 148.598 75.0734 148.598 74.2714Z" fill="#F40074"/>
<path d="M172.428 68.6575L167.96 79.9999H165.324L162.46 73.6985C160.742 77.5939 159.711 79.7707 159.596 79.9999H156.961L152.607 68.6575H155.815L158.45 75.4171L161.544 68.6575H163.491L166.585 75.4171L169.22 68.6575H172.428Z" fill="#F40074"/>
<defs>
<linearGradient id="paint0_linear_1_1312" x1="86.1902" y1="-0.207602" x2="86.1902" y2="14.353" gradientUnits="userSpaceOnUse">
<stop stop-color="#E30370"/>
<stop offset="1" stop-color="#451242"/>
</linearGradient>
<linearGradient id="paint1_linear_1_1312" x1="86.2444" y1="34.7164" x2="86.2444" y2="59.6774" gradientUnits="userSpaceOnUse">
<stop stop-color="#E30370"/>
<stop offset="1" stop-color="#451242"/>
</linearGradient>
<linearGradient id="paint2_linear_1_1312" x1="66.3778" y1="11.8335" x2="66.3778" y2="37.1229" gradientUnits="userSpaceOnUse">
<stop stop-color="#E30370"/>
<stop offset="1" stop-color="#451242"/>
</linearGradient>
<linearGradient id="paint3_linear_1_1312" x1="106.003" y1="11.9438" x2="106.003" y2="37.0143" gradientUnits="userSpaceOnUse">
<stop stop-color="#E30370"/>
<stop offset="1" stop-color="#451242"/>
</linearGradient>
<linearGradient id="paint4_linear_1_1312" x1="86.1363" y1="17.3826" x2="86.1363" y2="31.8337" gradientUnits="userSpaceOnUse">
<stop stop-color="#E30370"/>
<stop offset="1" stop-color="#451242"/>
</linearGradient>
<linearGradient id="paint5_linear_1_1312" x1="86.136" y1="4.61576" x2="86.136" y2="44.3563" gradientUnits="userSpaceOnUse">
<stop stop-color="#E30370"/>
<stop offset="1" stop-color="#451242"/>
</linearGradient>
</defs>
</svg>
